<svg width="32" height="32" viewBox="0 0 32 32" fill="none" xmlns="http://www.w3.org/2000/svg">
<path d="M20.7107 13.5867C20.5488 11.9364 19.1228 11.3859 17.3236 11.2318L17.319 8.94225L15.9254 8.94515L15.9298 11.1744C15.5635 11.1751 15.189 11.1831 14.8169 11.1913L14.8127 8.94729L13.4198 8.95L13.4238 11.2389C13.1221 11.2457 12.8258 11.2519 12.5369 11.2526L12.5367 11.2455L10.6145 11.2487L10.6178 12.7371C10.6178 12.7371 11.6469 12.7155 11.6298 12.7345C12.1943 12.7335 12.3787 13.0609 12.4327 13.3436L12.438 15.9519C12.4769 15.952 12.438 15.9519 12.4381 15.9618L12.4449 19.6157C12.4205 19.7934 12.3166 20.0769 11.9223 20.0784C11.9401 20.0941 10.9092 20.0801 10.9092 20.0801L10.6356 21.745L12.4492 21.7414C12.7867 21.7411 13.1188 21.7462 13.4448 21.7476L13.45 24.0632L14.8421 24.0607L14.8375 21.7696C15.2198 21.7767 15.5897 21.779 15.9509 21.778L15.9548 24.0586L17.3484 24.0557L17.3443 21.7442C19.687 21.6051 21.3257 21.0116 21.525 18.811C21.6859 17.039 20.851 16.2501 19.5203 15.9333C20.3275 15.5203 20.8313 14.7943 20.7107 13.5867ZM18.7707 18.542C18.7749 20.2725 15.8115 20.0815 14.867 20.0842L14.8613 17.0162C15.806 17.0145 18.7673 16.737 18.7707 18.542ZM18.114 14.2146C18.1167 15.789 15.6452 15.6102 14.8584 15.6118L14.853 12.8292C15.6398 12.8275 18.1106 12.5725 18.114 14.2146Z" fill="#1E1E1E"/>
</svg>
