<svg width="32" height="32" viewBox="0 0 32 32" fill="none" xmlns="http://www.w3.org/2000/svg">
<path d="M21.8781 11.1906C21.8781 11.7812 21.4 12.2594 20.8094 12.2594C20.2188 12.2594 19.7406 11.7812 19.7406 11.1906C19.7406 10.6 20.2188 10.1219 20.8094 10.1219C21.4 10.1219 21.8781 10.6 21.8781 11.1906ZM16 19.0094C14.3406 19.0094 12.9906 17.6594 12.9906 16C12.9906 14.3406 14.3406 12.9906 16 12.9906C17.6594 12.9906 19.0094 14.3406 19.0094 16C19.0094 17.6594 17.6594 19.0094 16 19.0094ZM16 11.3875C13.4406 11.3875 11.3875 13.4688 11.3875 16C11.3875 18.5312 13.4406 20.6125 16 20.6125C18.5594 20.6125 20.6125 18.5594 20.6125 16C20.6125 13.4406 18.5594 11.3875 16 11.3875ZM16 8.63125C18.3906 8.63125 18.7 8.63125 19.6281 8.6875C20.5 8.71563 20.9781 8.88437 21.2875 8.99687C21.7094 9.16563 22.0188 9.3625 22.3281 9.67188C22.6375 9.98125 22.8344 10.2906 23.0031 10.7125C23.1156 11.0219 23.2844 11.5 23.3125 12.3719C23.3687 13.3281 23.3687 13.6094 23.3687 16C23.3687 18.3906 23.3687 18.7 23.3125 19.6281C23.2844 20.5 23.1156 20.9781 23.0031 21.2875C22.8344 21.7094 22.6375 22.0188 22.3281 22.3281C22.0188 22.6375 21.7094 22.8344 21.2875 23.0031C20.9781 23.1156 20.5 23.2844 19.6281 23.3125C18.6719 23.3687 18.3906 23.3687 16 23.3687C13.6094 23.3687 13.3 23.3687 12.3719 23.3125C11.5 23.2844 11.0219 23.1156 10.7125 23.0031C10.2906 22.8344 9.98125 22.6375 9.67188 22.3281C9.3625 22.0188 9.16563 21.7094 8.99687 21.2875C8.88437 20.9781 8.71563 20.5 8.6875 19.6281C8.63125 18.7 8.63125 18.3906 8.63125 16C8.63125 13.6094 8.63125 13.3 8.6875 12.3719C8.71563 11.5 8.88437 11.0219 8.99687 10.7125C9.16563 10.2906 9.3625 9.98125 9.67188 9.67188C9.98125 9.3625 10.2906 9.16563 10.7125 8.99687C11.0219 8.88437 11.5 8.71563 12.3719 8.6875C13.3 8.63125 13.6094 8.63125 16 8.63125ZM16 7C13.5531 7 13.2437 7 12.2875 7.05625C11.3312 7.1125 10.6844 7.25313 10.0938 7.47813C9.50312 7.70312 8.99688 8.0125 8.51875 8.51875C8.04062 9.025 7.70312 9.50312 7.47813 10.0938C7.25313 10.6562 7.1125 11.3312 7.05625 12.2875C7 13.2437 7 13.5531 7 16C7 18.4469 7 18.7563 7.05625 19.7125C7.1125 20.6687 7.25313 21.3156 7.47813 21.9062C7.70312 22.4969 8.0125 23.0031 8.51875 23.5094C9.025 24.0156 9.53125 24.325 10.1219 24.55C10.6844 24.775 11.3594 24.9156 12.3156 24.9719C13.2438 25 13.5531 25 16 25C18.4469 25 18.7563 25 19.7125 24.9438C20.6687 24.8875 21.3156 24.7469 21.9062 24.5219C22.4969 24.2969 23.0031 23.9875 23.5094 23.4812C24.0156 22.975 24.325 22.4688 24.55 21.8781C24.775 21.3156 24.9156 20.6406 24.9719 19.6844C25 18.7562 25 18.4469 25 16C25 13.5531 25 13.2437 24.9438 12.2875C24.8875 11.3312 24.7469 10.6844 24.5219 10.0938C24.2969 9.50312 23.9875 8.99688 23.4812 8.49063C22.975 7.98438 22.4688 7.675 21.8781 7.45C21.3156 7.225 20.6406 7.08438 19.6844 7.02813C18.7562 7 18.4469 7 16 7Z" fill="url(#paint0_radial_5977_54785)"/>
<path d="M21.8781 11.1906C21.8781 11.7812 21.4 12.2594 20.8094 12.2594C20.2188 12.2594 19.7406 11.7812 19.7406 11.1906C19.7406 10.6 20.2188 10.1219 20.8094 10.1219C21.4 10.1219 21.8781 10.6 21.8781 11.1906ZM16 19.0094C14.3406 19.0094 12.9906 17.6594 12.9906 16C12.9906 14.3406 14.3406 12.9906 16 12.9906C17.6594 12.9906 19.0094 14.3406 19.0094 16C19.0094 17.6594 17.6594 19.0094 16 19.0094ZM16 11.3875C13.4406 11.3875 11.3875 13.4688 11.3875 16C11.3875 18.5312 13.4406 20.6125 16 20.6125C18.5594 20.6125 20.6125 18.5594 20.6125 16C20.6125 13.4406 18.5594 11.3875 16 11.3875ZM16 8.63125C18.3906 8.63125 18.7 8.63125 19.6281 8.6875C20.5 8.71563 20.9781 8.88437 21.2875 8.99687C21.7094 9.16563 22.0188 9.3625 22.3281 9.67188C22.6375 9.98125 22.8344 10.2906 23.0031 10.7125C23.1156 11.0219 23.2844 11.5 23.3125 12.3719C23.3687 13.3281 23.3687 13.6094 23.3687 16C23.3687 18.3906 23.3687 18.7 23.3125 19.6281C23.2844 20.5 23.1156 20.9781 23.0031 21.2875C22.8344 21.7094 22.6375 22.0188 22.3281 22.3281C22.0188 22.6375 21.7094 22.8344 21.2875 23.0031C20.9781 23.1156 20.5 23.2844 19.6281 23.3125C18.6719 23.3687 18.3906 23.3687 16 23.3687C13.6094 23.3687 13.3 23.3687 12.3719 23.3125C11.5 23.2844 11.0219 23.1156 10.7125 23.0031C10.2906 22.8344 9.98125 22.6375 9.67188 22.3281C9.3625 22.0188 9.16563 21.7094 8.99687 21.2875C8.88437 20.9781 8.71563 20.5 8.6875 19.6281C8.63125 18.7 8.63125 18.3906 8.63125 16C8.63125 13.6094 8.63125 13.3 8.6875 12.3719C8.71563 11.5 8.88437 11.0219 8.99687 10.7125C9.16563 10.2906 9.3625 9.98125 9.67188 9.67188C9.98125 9.3625 10.2906 9.16563 10.7125 8.99687C11.0219 8.88437 11.5 8.71563 12.3719 8.6875C13.3 8.63125 13.6094 8.63125 16 8.63125ZM16 7C13.5531 7 13.2437 7 12.2875 7.05625C11.3312 7.1125 10.6844 7.25313 10.0938 7.47813C9.50312 7.70312 8.99688 8.0125 8.51875 8.51875C8.04062 9.025 7.70312 9.50312 7.47813 10.0938C7.25313 10.6562 7.1125 11.3312 7.05625 12.2875C7 13.2437 7 13.5531 7 16C7 18.4469 7 18.7563 7.05625 19.7125C7.1125 20.6687 7.25313 21.3156 7.47813 21.9062C7.70312 22.4969 8.0125 23.0031 8.51875 23.5094C9.025 24.0156 9.53125 24.325 10.1219 24.55C10.6844 24.775 11.3594 24.9156 12.3156 24.9719C13.2438 25 13.5531 25 16 25C18.4469 25 18.7563 25 19.7125 24.9438C20.6687 24.8875 21.3156 24.7469 21.9062 24.5219C22.4969 24.2969 23.0031 23.9875 23.5094 23.4812C24.0156 22.975 24.325 22.4688 24.55 21.8781C24.775 21.3156 24.9156 20.6406 24.9719 19.6844C25 18.7562 25 18.4469 25 16C25 13.5531 25 13.2437 24.9438 12.2875C24.8875 11.3312 24.7469 10.6844 24.5219 10.0938C24.2969 9.50312 23.9875 8.99688 23.4812 8.49063C22.975 7.98438 22.4688 7.675 21.8781 7.45C21.3156 7.225 20.6406 7.08438 19.6844 7.02813C18.7562 7 18.4469 7 16 7Z" fill="black"/>
<defs>
<radialGradient id="paint0_radial_5977_54785" cx="0" cy="0" r="1" gradientUnits="userSpaceOnUse" gradientTransform="translate(9.68748 25.0625) scale(22.9995)">
<stop stop-color="#FFB140"/>
<stop offset="0.2559" stop-color="#FF5445"/>
<stop offset="0.599" stop-color="#FC2B82"/>
<stop offset="1" stop-color="#8E40B7"/>
</radialGradient>
</defs>
</svg>
