<svg width="32" height="32" viewBox="0 0 32 32" fill="none" xmlns="http://www.w3.org/2000/svg">
<path d="M19.1227 11.3906H12.6516V21.5888H19.1227V11.3906Z" fill="#FF5F00"/>
<path d="M13.3132 16.5038C13.3132 14.5031 14.2623 12.6413 15.8729 11.3908C12.9681 9.16777 8.74031 9.66795 6.43947 12.4745C4.13864 15.2811 4.65633 19.3659 7.56113 21.589C10.0058 23.4508 13.4283 23.4508 15.8729 21.589C14.2623 20.3663 13.3132 18.4767 13.3132 16.5038Z" fill="#EB001B"/>
<path d="M26.7443 16.5038C26.7443 20.0884 23.7244 22.9784 20.0431 22.9784C18.5476 22.9784 17.0808 22.4782 15.9016 21.589C18.8064 19.3659 19.3241 15.3089 17.0233 12.4745C16.7069 12.0577 16.3043 11.6965 15.9016 11.3908C18.8064 9.16777 23.0054 9.66795 25.3063 12.4745C26.2266 13.6138 26.7443 15.031 26.7443 16.5038Z" fill="#F79E1B"/>
</svg>
