<svg width="32" height="32" viewBox="0 0 32 32" fill="none" xmlns="http://www.w3.org/2000/svg">
<g clip-path="url(#clip0_5977_54803)">
<path d="M29.1631 11H22.9221C23.2672 13.0007 25.2805 14.8903 27.4663 14.8903H32.4131C32.4706 14.6958 32.4706 14.4457 32.4706 14.2512C32.4993 12.445 31.0326 11 29.1631 11Z" fill="url(#paint0_linear_5977_54803)"/>
<path d="M23.4397 15.2227V20.0855H26.4595V17.5013H29.1342C30.601 17.5013 31.8952 16.5287 32.2979 15.2227H23.4397Z" fill="#4DB45F"/>
<path d="M12.7407 11V20.0589H15.4154C15.4154 20.0589 16.0769 20.0589 16.4221 19.4198C18.234 15.9185 18.7804 14.8903 18.7804 14.8903H19.1255V20.0589H22.1454V11H19.4707C19.4707 11 18.8092 11.0556 18.464 11.6391C16.911 14.6124 16.1057 16.1686 16.1057 16.1686H15.7606V11H12.7407Z" fill="#4DB45F"/>
<path d="M0 20.0867V11H3.01985C3.01985 11 3.88266 11 4.37159 12.306C5.57953 15.724 5.72332 16.1963 5.72332 16.1963C5.72332 16.1963 5.98217 15.3627 7.07507 12.306C7.53523 11 8.4268 11 8.4268 11H11.4466V20.0589H8.4268V15.2238H8.05292L6.38482 20.0867H5.03308L3.36497 15.2238H3.01985V20.0867H0Z" fill="#4DB45F"/>
</g>
<defs>
<linearGradient id="paint0_linear_5977_54803" x1="22.8998" y1="12.954" x2="32.4993" y2="12.954" gradientUnits="userSpaceOnUse">
<stop stop-color="#00B4E6"/>
<stop offset="1" stop-color="#088CCB"/>
</linearGradient>
<clipPath id="clip0_5977_54803">
<rect width="32" height="32" fill="white"/>
</clipPath>
</defs>
</svg>
