<svg width="32" height="32" viewBox="0 0 32 32" fill="none" xmlns="http://www.w3.org/2000/svg">
<path d="M16 25C20.9706 25 25 20.9706 25 16C25 11.0294 20.9706 7 16 7C11.0294 7 7 11.0294 7 16C7 20.9706 11.0294 25 16 25Z" fill="url(#paint0_linear_5977_54787)"/>
<path d="M16 25C20.9706 25 25 20.9706 25 16C25 11.0294 20.9706 7 16 7C11.0294 7 7 11.0294 7 16C7 20.9706 11.0294 25 16 25Z" fill="black"/>
<path d="M10.3518 15.9873C11.4069 15.3977 12.5862 14.9322 13.6724 14.4356C15.5656 13.6287 17.4587 12.8529 19.3828 12.1391C19.7552 12.0149 20.438 11.8908 20.5 12.4494C20.469 13.2253 20.3138 14.0011 20.2207 14.777C19.9724 16.4839 19.6621 18.1908 19.3828 19.8977C19.2897 20.4563 18.5759 20.7667 18.1104 20.3942C17.0242 19.6494 15.9069 18.9356 14.8518 18.1598C14.5104 17.7873 14.8207 17.2908 15.1311 17.0425C16.0311 16.1425 16.9931 15.3977 17.8311 14.4667C18.0483 13.908 17.3966 14.3736 17.1483 14.5287C15.9069 15.3667 14.7276 16.2667 13.4242 17.0115C12.7724 17.3839 11.9966 17.0736 11.3138 16.8563C10.7242 16.608 9.82417 16.3598 10.3518 15.9873Z" fill="white"/>
<defs>
<linearGradient id="paint0_linear_5977_54787" x1="18.638" y1="9.84512" x2="14.138" y2="20.3445" gradientUnits="userSpaceOnUse">
<stop stop-color="#37AEE2"/>
<stop offset="1" stop-color="#1E96C8"/>
</linearGradient>
</defs>
</svg>
