<svg width="16" height="12" viewBox="0 0 16 12" fill="none" xmlns="http://www.w3.org/2000/svg">
<g clip-path="url(#clip0_2965_26813)">
<path fill-rule="evenodd" clip-rule="evenodd" d="M0 0H22.8V0.910054H0V0ZM0 1.82011H22.8V2.73016H0V1.82011ZM0 3.63791H22.8V4.55027H0V3.63791ZM0 5.45802H22.8V6.36807H0V5.45802ZM0 7.27813H22.8V8.18818H0V7.27813ZM0 9.09592H22.8V10.006H0V9.09592ZM0 10.916H22.8V11.8261H0V10.916Z" fill="#BD3D44"/>
<path fill-rule="evenodd" clip-rule="evenodd" d="M0 0.910156H22.8V1.82021H0V0.910156ZM0 2.73026H22.8V3.63801H0V2.73026ZM0 4.54806H22.8V5.45812H0V4.54806ZM0 6.36817H22.8V7.27823H0V6.36817ZM0 8.18828H22.8V9.09834H0V8.18828ZM0 10.0061H22.8V10.9161H0V10.0061Z" fill="white"/>
<path fill-rule="evenodd" clip-rule="evenodd" d="M0 0H9.11953V6.36807H0V0Z" fill="#192F5D"/>
<path fill-rule="evenodd" clip-rule="evenodd" d="M0.757813 0.273438L0.842188 0.525204H1.10938L0.89375 0.679959L0.975781 0.934035L0.757813 0.77697L0.542188 0.931725L0.624219 0.679959L0.40625 0.525204H0.678125L0.757813 0.273438ZM2.27891 0.273438L2.36094 0.525204H2.63047L2.4125 0.679959L2.49453 0.934035L2.27891 0.77697L2.06094 0.931725L2.14297 0.679959L1.92734 0.525204H2.19453L2.27891 0.273438ZM3.79766 0.273438L3.88203 0.525204H4.14688L3.93125 0.679959L4.01328 0.934035L3.79531 0.77697L3.57969 0.931725L3.66172 0.679959L3.44375 0.525204H3.71328L3.79766 0.273438ZM5.31875 0.273438L5.40078 0.525204H5.67031L5.45234 0.679959L5.53672 0.934035L5.31875 0.77697L5.10078 0.931725L5.18516 0.679959L4.96719 0.525204H5.23438L5.31875 0.273438ZM6.8375 0.273438L6.92188 0.525204H7.18906L6.97344 0.679959L7.05547 0.934035L6.8375 0.77697L6.62188 0.931725L6.70391 0.679959L6.48828 0.525204H6.75547L6.8375 0.273438ZM8.35859 0.273438L8.44063 0.525204H8.71016L8.49219 0.679959L8.57656 0.934035L8.35859 0.77697L8.14063 0.931725L8.225 0.679959L8.00703 0.525204H8.27656L8.35859 0.273438ZM1.51953 0.910937L1.60156 1.1627H1.87109L1.65313 1.31746L1.73281 1.56922L1.52188 1.41447L1.30391 1.56922L1.38125 1.31746L1.17031 1.1627H1.4375L1.51953 0.910937ZM3.03828 0.910937L3.12266 1.1627H3.38984L3.17188 1.31746L3.25625 1.56922L3.03828 1.41447L2.82031 1.56922L2.90469 1.31746L2.68672 1.1627H2.95625L3.03828 0.910937ZM4.55938 0.910937L4.64141 1.1627H4.91094L4.69297 1.31746L4.775 1.56922L4.55938 1.41447L4.34141 1.56922L4.42344 1.31746L4.20781 1.1627H4.475L4.55938 0.910937ZM6.07813 0.910937L6.1625 1.1627H6.42969L6.21172 1.31746L6.29609 1.56922L6.07813 1.41447L5.8625 1.56922L5.94453 1.31746L5.72656 1.1627H5.99844L6.07813 0.910937ZM7.59922 0.910937L7.68125 1.1627H7.95078L7.73281 1.31746L7.81484 1.56922L7.59922 1.41447L7.38125 1.56922L7.46328 1.31746L7.24766 1.1627H7.51484L7.59922 0.910937ZM0.757813 1.54613L0.842188 1.80251H1.10938L0.89375 1.95727L0.975781 2.20903L0.757813 2.05197L0.542188 2.20903L0.624219 1.95496L0.40625 1.8002H0.678125L0.757813 1.54613ZM2.27891 1.54613L2.36094 1.8002H2.63047L2.4125 1.95496L2.49453 2.20672L2.27891 2.04966L2.06094 2.20672L2.14297 1.95265L1.92734 1.79789H2.19453L2.27891 1.54613ZM3.79766 1.54613L3.88203 1.8002H4.14688L3.93125 1.95496L4.01328 2.20672L3.79531 2.04966L3.57969 2.20672L3.66172 1.95265L3.44375 1.79789H3.71328L3.79766 1.54613ZM5.31875 1.54613L5.40078 1.8002H5.67031L5.45234 1.95496L5.53672 2.20672L5.31875 2.04966L5.10078 2.20672L5.18516 1.95265L4.96719 1.79789H5.23438L5.31875 1.54613ZM6.8375 1.54613L6.92188 1.8002H7.18906L6.97344 1.95496L7.05547 2.20672L6.8375 2.04966L6.62188 2.20672L6.70391 1.95265L6.48828 1.79789H6.75547L6.8375 1.54613ZM8.35859 1.54613L8.44063 1.8002H8.71016L8.49219 1.95496L8.57656 2.20672L8.35859 2.04966L8.14063 2.20672L8.225 1.95265L8.00703 1.79789H8.27656L8.35859 1.54613ZM1.51953 2.18363L1.60156 2.43539H1.87109L1.65313 2.59015L1.73516 2.84422L1.51953 2.68716L1.30156 2.84191L1.38359 2.59015L1.16797 2.43539H1.43516L1.51953 2.18363ZM3.03828 2.18363L3.12266 2.43539H3.38984L3.17188 2.59015L3.25625 2.84422L3.03828 2.68716L2.82031 2.84191L2.90469 2.59015L2.68672 2.43539H2.95625L3.03828 2.18363ZM4.55938 2.18363L4.64141 2.43539H4.91094L4.69297 2.59015L4.775 2.84422L4.55938 2.68716L4.34141 2.84191L4.42344 2.59015L4.20781 2.43539H4.475L4.55938 2.18363ZM6.07813 2.18363L6.1625 2.43539H6.42969L6.21406 2.59015L6.29609 2.84422L6.07813 2.68716L5.8625 2.84191L5.94453 2.59015L5.72656 2.43539H5.99844L6.07813 2.18363ZM7.59922 2.18363L7.68125 2.43539H7.95078L7.73281 2.59015L7.81484 2.84422L7.59922 2.68716L7.38125 2.84191L7.46328 2.59015L7.24766 2.43539H7.51484L7.59922 2.18363ZM0.757813 2.82113L0.842188 3.07289H1.10938L0.89375 3.22765L0.975781 3.48172L0.757813 3.32466L0.542188 3.47941L0.624219 3.22765L0.40625 3.07289H0.678125L0.757813 2.82113ZM2.27891 2.82113L2.36094 3.07289H2.63047L2.4125 3.22765L2.49453 3.47941L2.27891 3.32466L2.06094 3.47941L2.14297 3.22765L1.92734 3.07289H2.19453L2.27891 2.82113ZM3.79766 2.82113L3.88203 3.07289H4.14688L3.93125 3.22765L4.01328 3.48172L3.79531 3.32466L3.57969 3.47941L3.66172 3.22765L3.44375 3.07289H3.71328L3.79766 2.82113ZM5.31875 2.82113L5.40078 3.07289H5.67031L5.45234 3.22765L5.53672 3.48172L5.31875 3.32466L5.10078 3.47941L5.18516 3.22765L4.96719 3.07289H5.23438L5.31875 2.82113ZM6.8375 2.82113L6.92188 3.07289H7.18906L6.97344 3.22765L7.05547 3.48172L6.8375 3.32466L6.62188 3.47941L6.70391 3.22765L6.48828 3.07289H6.75547L6.8375 2.82113ZM8.35859 2.82113L8.44063 3.07289H8.71016L8.49219 3.22765L8.57656 3.48172L8.35859 3.32466L8.14063 3.47941L8.225 3.22765L8.00703 3.07289H8.27656L8.35859 2.82113ZM1.51953 3.45863L1.60156 3.71039H1.87109L1.65313 3.86515L1.73516 4.11691L1.51953 3.95985L1.30156 4.11691L1.38359 3.86284L1.16797 3.70808H1.43516L1.51953 3.45863ZM3.03828 3.45863L3.12266 3.71039H3.38984L3.17188 3.86515L3.25625 4.11691L3.03828 3.95985L2.82031 4.11691L2.90469 3.86284L2.68672 3.70808H2.95625L3.03828 3.45863ZM4.55938 3.45863L4.64141 3.71039H4.91094L4.69297 3.86515L4.775 4.11691L4.55938 3.95985L4.34141 4.11691L4.42344 3.86284L4.20781 3.70808H4.475L4.55938 3.45863ZM6.07813 3.45863L6.1625 3.71039H6.42969L6.21406 3.86515L6.29609 4.11691L6.07813 3.95985L5.8625 4.11691L5.94453 3.86284L5.72656 3.70808H5.99844L6.07813 3.45863ZM7.59922 3.45863L7.68125 3.71039H7.95078L7.73281 3.86515L7.81484 4.11691L7.59922 3.95985L7.38125 4.11691L7.46328 3.86284L7.24766 3.70808H7.51484L7.59922 3.45863ZM0.757813 4.09382L0.842188 4.34789H1.10938L0.89375 4.50265L0.975781 4.7521L0.757813 4.59735L0.542188 4.7521L0.624219 4.50034L0.40625 4.34558H0.678125L0.757813 4.09382ZM2.27891 4.09382L2.36094 4.34789H2.63047L2.4125 4.50265L2.49688 4.7521L2.27891 4.59735L2.06094 4.7521L2.14531 4.50034L1.92734 4.34558H2.19453L2.27891 4.09382ZM3.79766 4.09382L3.88203 4.34789H4.14688L3.93125 4.50265L4.01328 4.7521L3.79531 4.59735L3.57969 4.7521L3.66172 4.50034L3.44375 4.34558H3.71328L3.79766 4.09382ZM5.31875 4.09382L5.40078 4.34789H5.67031L5.45234 4.50265L5.53672 4.7521L5.31875 4.59735L5.10078 4.7521L5.18516 4.50034L4.96719 4.34558H5.23438L5.31875 4.09382ZM6.8375 4.09382L6.92188 4.34789H7.18906L6.97344 4.50265L7.05547 4.7521L6.8375 4.59735L6.62188 4.7521L6.70391 4.50034L6.48828 4.34558H6.75547L6.8375 4.09382ZM8.35859 4.09382L8.44063 4.34789H8.71016L8.49219 4.50265L8.57656 4.7521L8.35859 4.59735L8.14063 4.7521L8.225 4.50034L8.00703 4.34558H8.27656L8.35859 4.09382ZM1.51953 4.73132L1.60156 4.98308H1.87109L1.65313 5.13784L1.73516 5.39191L1.51953 5.23485L1.30156 5.3896L1.38359 5.13784L1.16797 4.98308H1.43516L1.51953 4.73132ZM3.03828 4.73132L3.12266 4.98308H3.38984L3.17188 5.13784L3.25625 5.39191L3.03828 5.23485L2.82031 5.3896L2.90469 5.13784L2.68672 4.98308H2.95625L3.03828 4.73132ZM4.55938 4.73132L4.64141 4.98308H4.91094L4.69297 5.13784L4.775 5.39191L4.55938 5.23485L4.34141 5.3896L4.42344 5.13784L4.20781 4.98308H4.475L4.55938 4.73132ZM6.07813 4.73132L6.1625 4.98308H6.42969L6.21406 5.13784L6.29609 5.39191L6.07813 5.23485L5.8625 5.3896L5.94453 5.13784L5.72656 4.98308H5.99844L6.07813 4.73132ZM7.59922 4.73132L7.68125 4.98308H7.95078L7.73281 5.13784L7.81484 5.39191L7.59922 5.23485L7.38125 5.3896L7.46328 5.13784L7.24766 4.98308H7.51484L7.59922 4.73132ZM0.757813 5.36882L0.842188 5.62058H1.10938L0.89375 5.77534L0.975781 6.0271L0.757813 5.87235L0.542188 6.0271L0.624219 5.77303L0.40625 5.61827H0.678125L0.757813 5.36882ZM2.27891 5.36882L2.36094 5.62058H2.63047L2.4125 5.77534L2.49688 6.0271L2.27891 5.87235L2.06094 6.0271L2.14531 5.77303L1.92734 5.61827H2.19453L2.27891 5.36882ZM3.79766 5.36882L3.88203 5.62058H4.14688L3.93594 5.77534L4.01797 6.0271L3.8 5.87235L3.58438 6.0271L3.66641 5.77303L3.44844 5.61827H3.71797L3.79766 5.36882ZM5.31875 5.36882L5.40078 5.62058H5.67031L5.45234 5.77534L5.53672 6.0271L5.31875 5.87235L5.10078 6.0271L5.18516 5.77303L4.96719 5.61827H5.23438L5.31875 5.36882ZM6.8375 5.36882L6.92188 5.62058H7.18906L6.97344 5.77534L7.05547 6.0271L6.8375 5.87235L6.62188 6.0271L6.70391 5.77303L6.48828 5.61827H6.75547L6.8375 5.36882ZM8.35859 5.36882L8.44063 5.62058H8.71016L8.49219 5.77534L8.57656 6.0271L8.35859 5.87235L8.14063 6.0271L8.225 5.77303L8.00703 5.61827H8.27656L8.35859 5.36882Z" fill="white"/>
</g>
<defs>
<clipPath id="clip0_2965_26813">
<rect width="16" height="12" fill="white"/>
</clipPath>
</defs>
</svg>
