<svg width="32" height="32" viewBox="0 0 32 32" fill="none" xmlns="http://www.w3.org/2000/svg">
<path d="M13.861 20.764H11.2698L12.8245 11.125H15.4158L13.861 20.764Z" fill="#00579F"/>
<path d="M23.3191 11.3755C22.8009 11.1252 22.0235 11 20.987 11C18.3957 11 16.5818 12.377 16.5818 14.2547C16.5818 15.6318 17.8775 16.3828 18.914 16.8836C19.9505 17.3843 20.2096 17.6347 20.2096 18.1354C20.2096 18.7613 19.4322 19.1369 18.6549 19.1369C17.6183 19.1369 17.1001 19.0117 16.1932 18.6361L15.8045 18.5109L15.4158 20.3887C16.0636 20.639 17.1001 20.8894 18.2662 20.8894C20.987 20.8894 22.8009 19.6376 22.8009 17.5095C22.8009 16.3828 22.1531 15.5066 20.5983 14.8807C19.6914 14.3799 19.1731 14.1296 19.1731 13.6288C19.1731 13.2533 19.6914 12.7526 20.7279 12.7526C21.6348 12.7526 22.1531 12.8777 22.6713 13.1281L22.9304 13.2533L23.3191 11.3755Z" fill="#00579F"/>
<path d="M26.6878 17.3841C26.947 16.8834 27.7244 14.6301 27.7244 14.6301C27.7244 14.6301 27.9835 14.0042 28.113 13.7538L28.2426 14.6301C28.2426 14.6301 28.7609 17.0086 28.8904 17.5093C28.5017 17.3841 27.2061 17.3841 26.6878 17.3841ZM29.9269 11.125H27.9835C27.3357 11.125 26.947 11.2502 26.5583 11.8761L22.6714 20.764H25.3922C25.3922 20.764 25.7809 19.5122 25.9105 19.2619C26.1696 19.2619 28.8904 19.2619 29.2791 19.2619C29.4087 19.6374 29.5382 20.764 29.5382 20.764H31.9999L29.9269 11.125Z" fill="#00579F"/>
<path d="M9.06727 11.1252L6.47601 17.7599L6.21688 16.3828C5.69863 14.8807 4.27343 13.1281 2.58911 12.2518L4.92125 20.7642H7.64208L11.7881 11L9.06727 11.1252Z" fill="#00579F"/>
<path d="M4.14603 11.125H0V11.3754C3.23908 12.1265 5.44166 14.1294 6.3486 16.5078L5.44166 12.0013C5.18253 11.2502 4.66428 11.125 4.14603 11.125Z" fill="#FAA61A"/>
</svg>
