<svg width="32" height="32" viewBox="0 0 32 32" fill="none" xmlns="http://www.w3.org/2000/svg">
<path d="M26.7446 12.2432C26.7446 12.2432 26.4892 10.7297 25.95 10.1081C25.1554 9.24324 24.2473 9.24324 23.85 9.24324C20.9554 9 16.5 9 16.5 9C16.5 9 12.0446 9 9.15 9.24324C8.7527 9.24324 7.84459 9.24324 7.05 10.1081C6.3973 10.7568 6.25541 12.2432 6.25541 12.2432C6.25541 12.2432 6 14 6 15.7568V17.3784C6 19.1351 6.25541 20.8919 6.25541 20.8919C6.25541 20.8919 6.51081 22.4054 7.05 23.027C7.84459 23.8649 8.89459 23.8649 9.40541 23.8649C10.9946 24 16.5 24 16.5 24C16.5 24 20.9554 24 23.85 23.7568C24.2473 23.7568 25.1554 23.7568 25.95 22.8919C26.6027 22.2703 26.7446 20.7568 26.7446 20.7568C26.7446 20.7568 27 19 27 17.2432V15.7568C27 14 26.7446 12.2432 26.7446 12.2432Z" fill="#1E1E1E"/>
<path d="M13.8892 12.9355V20.0627L20.4446 16.512L13.8892 12.9355Z" fill="white"/>
</svg>
